<svg width="251" height="262" viewBox="0 0 251 262" fill="none" xmlns="http://www.w3.org/2000/svg">
<path d="M1 29V201L38 223V94L125 146L211 94V223L250 201V29L187 64V19.5L151.5 1V81.5L125 100L97.5 81.5V1L63 19.5V64L1 29Z" fill="white"/>
<path d="M187 149.5V239L151.5 261V168.5L187 149.5Z" fill="white"/>
<path d="M63 149.5L97.5 168.5V261L63 239V149.5Z" fill="white"/>
<path d="M1 29V201L38 223V94L125 146L211 94V223L250 201V29L187 64V19.5L151.5 1V81.5L125 100L97.5 81.5V1L63 19.5V64L1 29Z" stroke="white"/>
<path d="M187 149.5V239L151.5 261V168.5L187 149.5Z" stroke="white"/>
<path d="M63 149.5L97.5 168.5V261L63 239V149.5Z" stroke="white"/>
</svg>
